<?xml version="1.0" standalone="no"?>
<!DOCTYPE svg PUBLIC "-//W3C//DTD SVG 20010904//EN"
 "http://www.w3.org/TR/2001/REC-SVG-20010904/DTD/svg10.dtd">
<svg version="1.0" xmlns="http://www.w3.org/2000/svg"
 width="480.000000pt" height="480.000000pt" viewBox="0 0 480.000000 480.000000"
 preserveAspectRatio="xMidYMid meet">

<g transform="translate(0.000000,480.000000) scale(0.100000,-0.100000)"
fill="#000000" stroke="none">
<path d="M2230 4430 c-549 -44 -1053 -309 -1413 -743 -365 -439 -527 -1055
-427 -1627 103 -591 461 -1107 980 -1411 661 -388 1514 -362 2148 65 308 207
533 466 697 801 107 219 168 424 196 659 15 125 6 463 -14 571 -34 179 -86
346 -64 203 5 -35 10 -137 10 -228 -1 -243 -42 -457 -138 -705 -52 -135 -82
-195 -95 -195 -18 0 -11 26 28 112 115 248 174 518 174 793 0 149 -14 275 -51
460 -8 44 -129 284 -162 325 l-21 25 7 -25 c3 -14 21 -84 40 -155 47 -182 58
-274 58 -470 0 -296 -67 -576 -195 -809 -45 -82 -44 -80 -57 -72 -6 4 11 49
44 114 136 270 196 578 174 897 -12 168 -39 305 -97 484 l-47 144 -90 105
c-56 66 -91 100 -93 90 -2 -9 8 -62 22 -119 91 -386 109 -505 110 -739 1 -247
-45 -483 -131 -673 -54 -119 -74 -150 -86 -138 -8 8 -4 24 12 53 73 134 135
333 162 523 34 231 0 635 -66 780 -41 90 -113 140 -175 120 -17 -5 -20 -12
-16 -33 33 -172 40 -584 13 -772 -18 -122 -50 -250 -86 -338 -55 -137 -166
-259 -290 -320 -70 -34 -83 -37 -161 -37 -116 0 -167 27 -315 167 -62 58 -128
114 -146 124 -22 11 -58 17 -104 18 -59 0 -78 -4 -117 -27 -28 -16 -49 -23
-53 -17 -9 15 -1 23 52 50 37 19 63 25 118 25 94 0 146 -30 278 -157 131 -126
183 -153 286 -152 60 0 88 6 134 27 155 71 251 189 316 389 45 135 60 230 72
437 10 187 2 374 -22 544 -8 50 -8 82 -2 88 5 5 32 12 59 15 43 5 55 2 97 -25
l48 -31 -7 37 c-3 21 -17 83 -30 137 -13 54 -24 100 -24 102 0 2 -42 38 -92
81 -393 326 -933 495 -1448 453z m490 -60 c224 -41 390 -96 574 -189 109 -56
278 -160 290 -180 4 -5 -27 6 -68 25 -132 61 -247 85 -404 86 -154 1 -233 -13
-364 -63 -124 -48 -261 -133 -333 -208 l-39 -41 374 2 375 3 3 23 c3 22 6 22
147 22 l144 0 6 33 c4 18 5 46 3 61 -2 17 2 31 10 33 9 4 12 -13 12 -61 l0
-66 45 0 45 0 0 -85 0 -85 -204 0 -205 0 -3 28 -3 27 -402 3 -402 2 -26 -34
c-51 -67 -113 -188 -144 -280 -108 -328 -35 -702 188 -960 23 -26 39 -52 35
-57 -17 -28 -91 -52 -155 -52 -90 1 -128 23 -259 148 -60 57 -133 117 -162
132 -47 25 -64 28 -143 28 -76 -1 -99 -5 -147 -27 -207 -96 -328 -289 -383
-613 -34 -206 -37 -524 -5 -756 6 -45 9 -88 5 -96 -7 -21 -79 -11 -114 14 -43
33 -88 130 -110 238 -82 411 -40 807 120 1128 37 74 41 97 19 97 -6 0 -23 -26
-39 -57 -119 -237 -170 -471 -171 -775 0 -206 15 -313 95 -664 13 -60 22 -111
19 -114 -3 -2 -13 5 -22 17 -9 11 -51 63 -93 114 -86 106 -106 151 -149 334
-84 352 -60 704 69 1049 22 58 56 133 75 166 39 66 44 90 22 90 -18 0 -114
-194 -150 -302 -36 -107 -73 -267 -86 -368 -22 -181 -8 -447 33 -637 8 -35 11
-63 7 -63 -8 0 -80 150 -117 245 -116 292 -66 794 119 1198 31 68 37 91 29
100 -16 15 -23 3 -84 -143 -91 -217 -143 -435 -153 -642 -4 -70 -10 -125 -14
-123 -16 10 -33 250 -27 402 11 293 72 543 197 798 54 110 128 238 142 243 4
2 8 8 8 13 0 6 33 52 73 102 165 207 353 371 569 495 256 148 502 225 848 266
85 10 369 -4 480 -24z m512 -957 c65 -29 131 -93 164 -160 25 -49 29 -67 29
-142 -1 -73 -5 -95 -28 -142 -32 -66 -99 -132 -165 -162 -71 -33 -209 -31
-276 3 -65 33 -126 94 -156 155 -35 71 -40 189 -11 265 33 89 121 168 221 201
44 15 171 4 222 -18z m-1446 -809 c29 -15 94 -67 146 -116 90 -88 152 -136
193 -153 77 -30 177 -18 242 31 17 13 38 21 45 18 22 -9 110 -129 156 -212 84
-153 131 -368 118 -543 -12 -166 -75 -344 -172 -490 l-45 -69 -410 0 -409 0 0
25 0 25 -117 1 c-65 0 -157 1 -204 2 l-87 2 -4 -58 c-2 -32 -2 -71 0 -88 4
-26 8 -29 43 -29 l39 0 1 -52 c1 -29 1 -59 0 -66 -2 -8 5 -12 16 -10 15 3 17
12 15 59 -5 69 -6 69 171 69 128 0 132 1 128 38 -2 9 78 12 369 12 205 0 370
-4 368 -8 -6 -15 -82 -78 -144 -121 -89 -60 -218 -117 -320 -143 -126 -31
-353 -31 -471 0 -157 41 -315 123 -414 214 -36 34 -58 94 -75 207 l-6 45 32
-27 c17 -15 44 -30 58 -33 15 -3 35 -7 44 -9 24 -4 84 38 79 56 -23 81 -41
288 -41 454 0 158 22 391 39 423 6 11 8 22 5 25 -7 6 22 116 43 165 48 113 69
154 86 170 11 9 23 27 28 39 12 31 121 119 166 133 21 7 44 17 51 23 43 34
163 29 238 -9z"/>
<path d="M3074 3125 c-9 -23 3 -45 25 -45 20 0 37 32 26 50 -9 15 -45 12 -51
-5z"/>
<path d="M1563 2010 c-70 -28 -145 -101 -179 -173 -33 -74 -37 -177 -9 -255
24 -67 89 -140 156 -177 50 -28 62 -30 154 -30 92 0 104 2 153 30 71 39 118
88 151 155 22 47 26 68 26 145 0 79 -4 97 -28 143 -34 65 -89 120 -153 152
-69 34 -197 39 -271 10z m147 -295 c10 -12 10 -18 0 -30 -25 -30 -61 -7 -46
30 3 8 12 15 19 15 8 0 20 -7 27 -15z"/>
<path d="M1350 1396 c0 -2 8 -10 18 -17 15 -13 16 -12 3 4 -13 16 -21 21 -21
13z"/>
<path d="M1950 1230 c-9 -6 -10 -10 -3 -10 6 0 15 5 18 10 8 12 4 12 -15 0z"/>
</g>
</svg>
